<?xml version="1.0" encoding="UTF-8" standalone="no"?>
<svg width="622px" height="169px" viewBox="0 0 622 169" version="1.1" xmlns="http://www.w3.org/2000/svg" xmlns:xlink="http://www.w3.org/1999/xlink">
    <!-- Generator: Sketch 3.8.2 (29753) - http://www.bohemiancoding.com/sketch -->
    <title>banner-warning</title>
    <desc>Created with Sketch.</desc>
    <defs>
        <linearGradient x1="50%" y1="-109.754068%" x2="50%" y2="100%" id="linearGradient-1">
            <stop stop-color="#FBDA61" offset="0%"></stop>
            <stop stop-color="#F76B1C" offset="100%"></stop>
        </linearGradient>
        <rect id="path-2" x="0" y="0" width="622" height="169"></rect>
        <filter x="-50%" y="-50%" width="200%" height="200%" filterUnits="objectBoundingBox" id="filter-3">
            <feGaussianBlur stdDeviation="1" in="SourceAlpha" result="shadowBlurInner1"></feGaussianBlur>
            <feOffset dx="0" dy="2" in="shadowBlurInner1" result="shadowOffsetInner1"></feOffset>
            <feComposite in="shadowOffsetInner1" in2="SourceAlpha" operator="arithmetic" k2="-1" k3="1" result="shadowInnerInner1"></feComposite>
            <feColorMatrix values="0 0 0 0 0   0 0 0 0 0   0 0 0 0 0  0 0 0 0.312613225 0" type="matrix" in="shadowInnerInner1"></feColorMatrix>
        </filter>
    </defs>
    <g id="Page-1" stroke="none" stroke-width="1" fill="none" fill-rule="evenodd">
        <g id="banner-warning">
            <g id="Rectangle-4">
                <use fill="url(#linearGradient-1)" fill-rule="evenodd" xlink:href="#path-2"></use>
                <use fill="black" fill-opacity="1" filter="url(#filter-3)" xlink:href="#path-2"></use>
            </g>
            <path d="M83.0084541,92.2901916 C83.0084541,94.9118973 82.4939654,97.1154531 81.4649726,98.9009251 C80.4359798,100.686397 79.0714664,102.121533 77.3713913,103.206377 C75.6713162,104.291221 73.7363914,105.070941 71.5665588,105.54556 C69.3967261,106.020179 67.1710034,106.257485 64.8893237,106.257485 L45.9648986,106.257485 L45.9648986,58.2533892 L64.8893237,58.2533892 C66.7236152,58.2533892 68.6026173,58.4454941 70.5263865,58.8297096 C72.4501556,59.2139251 74.1949433,59.8693417 75.7608019,60.795979 C77.3266605,61.7226164 78.6016977,62.9769482 79.5859517,64.559012 C80.5702057,66.1410758 81.0623253,68.1525267 81.0623253,70.5934251 C81.0623253,73.2603327 80.3465149,75.4638885 78.9148728,77.2041587 C77.4832306,78.9444289 75.6042285,80.1987606 73.27781,80.9671916 L73.27781,81.1027964 C74.6199745,81.3288055 75.8838271,81.7469161 77.0694058,82.3571407 C78.2549845,82.9673653 79.2839618,83.7470851 80.1563688,84.6963234 C81.0287757,85.6455616 81.722217,86.7529897 82.2367134,88.0186407 C82.7512098,89.2842918 83.0084541,90.7081278 83.0084541,92.2901916 L83.0084541,92.2901916 Z M69.9895233,72.1528802 C69.9895233,70.5256146 69.3743738,69.3390846 68.1440564,68.5932545 C66.9137389,67.8474244 65.0906594,67.474515 62.6747633,67.474515 L57.0377005,67.474515 L57.0377005,77.3736647 L63.2116264,77.3736647 C65.3590896,77.3736647 67.0255856,76.9329535 68.2111643,76.051518 C69.3967429,75.1700824 69.9895233,73.8705495 69.9895233,72.1528802 L69.9895233,72.1528802 Z M71.5330048,91.2053533 C71.5330048,89.2164731 70.7948254,87.8378382 69.3184444,87.0694072 C67.8420635,86.3009762 65.873585,85.9167665 63.4129501,85.9167665 L57.0377005,85.9167665 L57.0377005,96.9007545 L63.480058,96.9007545 C64.3748343,96.9007545 65.3031509,96.8216525 66.2650354,96.6634461 C67.22692,96.5052397 68.0993139,96.2227326 68.8822432,95.8159162 C69.6651725,95.4090998 70.302691,94.8327852 70.794818,94.0869551 C71.286945,93.341125 71.5330048,92.3806007 71.5330048,91.2053533 L71.5330048,91.2053533 Z M98.0265989,61.7113114 C98.0265989,62.570146 97.8588309,63.3724663 97.5232898,64.1182964 C97.1877486,64.8641265 96.7403672,65.5082428 96.1811319,66.0506647 C95.6218967,66.5930865 94.9508245,67.0224974 94.1678952,67.3389102 C93.3849659,67.6553229 92.5684948,67.8135269 91.7184572,67.8135269 C89.9289045,67.8135269 88.4301766,67.2146118 87.2222286,66.0167635 C86.0142805,64.8189152 85.4103155,63.3837788 85.4103155,61.7113114 C85.4103155,60.8976786 85.566899,60.1179588 85.8800708,59.3721287 C86.1932425,58.6262987 86.6406239,57.9821824 87.2222286,57.4397605 C87.8038332,56.8973386 88.4749054,56.4566274 89.2354653,56.1176138 C89.9960252,55.7786001 90.8236809,55.6090958 91.7184572,55.6090958 C92.5684948,55.6090958 93.3849659,55.7672998 94.1678952,56.0837126 C94.9508245,56.4001253 95.6218967,56.8295362 96.1811319,57.3719581 C96.7403672,57.91438 97.1877486,58.5584963 97.5232898,59.3043263 C97.8588309,60.0501564 98.0265989,60.8524767 98.0265989,61.7113114 L98.0265989,61.7113114 Z M86.2156102,106.257485 L86.2156102,72.4918922 L97.2213043,72.4918922 L97.2213043,106.257485 L86.2156102,106.257485 Z M137.472016,103.070772 C137.472016,106.370506 137.002265,109.240778 136.06275,111.681677 C135.123235,114.122575 133.80346,116.145326 132.103385,117.749991 C130.40331,119.354656 128.33417,120.552486 125.895905,121.343518 C123.457639,122.13455 120.762166,122.53006 117.809404,122.53006 C114.856642,122.53006 111.825633,122.078048 108.716285,121.174012 C105.606937,120.269976 102.911464,118.959142 100.629784,117.241473 L106.132631,109.308593 C107.743228,110.755051 109.52157,111.828578 111.467708,112.529207 C113.413847,113.229835 115.326403,113.580144 117.205433,113.580144 C120.426628,113.580144 122.808934,112.721322 124.352423,111.003653 C125.895913,109.285983 126.667646,107.003326 126.667646,104.155611 L126.667646,102.121539 L126.466322,102.121539 C125.437329,103.477594 124.050447,104.562421 122.305633,105.376054 C120.560819,106.189687 118.569971,106.596497 116.33303,106.596497 C113.782918,106.596497 111.523641,106.133185 109.555133,105.206548 C107.586626,104.279911 105.92013,103.025579 104.555596,101.443515 C103.191062,99.8614512 102.1509,98.0195045 101.435079,95.9176198 C100.719258,93.815735 100.361352,91.5895786 100.361352,89.2390838 C100.361352,86.888589 100.719258,84.6511324 101.435079,82.5266467 C102.1509,80.402161 103.191062,78.5263135 104.555596,76.8990479 C105.92013,75.2717823 107.586626,73.9722494 109.555133,73.0004102 C111.523641,72.028571 113.760549,71.5426587 116.265923,71.5426587 C118.368647,71.5426587 120.381864,71.9720696 122.305633,72.8309042 C124.229402,73.6897388 125.772868,75.0231726 126.936077,76.8312455 L127.070293,76.8312455 L127.070293,72.4918922 L137.472016,72.4918922 L137.472016,103.070772 Z M127.003185,89.1712814 C127.003185,88.0412359 126.813048,86.9564084 126.432768,85.9167665 C126.052488,84.8771245 125.504446,83.9618014 124.788625,83.1707695 C124.072804,82.3797376 123.222779,81.7582218 122.238525,81.3062036 C121.254271,80.8541854 120.135817,80.6281796 118.88313,80.6281796 C117.630443,80.6281796 116.523174,80.8541854 115.56129,81.3062036 C114.599405,81.7582218 113.782934,82.3684373 113.111852,83.1368683 C112.440769,83.9052993 111.926281,84.8093221 111.56837,85.8489641 C111.21046,86.888606 111.031507,87.996034 111.031507,89.1712814 C111.031507,90.301327 111.21046,91.3861545 111.56837,92.4257964 C111.926281,93.4654383 112.440769,94.3807615 113.111852,95.1717934 C113.782934,95.9628253 114.599405,96.5956413 115.56129,97.0702605 C116.523174,97.5448796 117.630443,97.7821856 118.88313,97.7821856 C120.135817,97.7821856 121.265455,97.5448796 122.272079,97.0702605 C123.278702,96.5956413 124.128727,95.9741256 124.822179,95.2056946 C125.51563,94.4372636 126.052488,93.5332407 126.432768,92.4935988 C126.813048,91.4539569 127.003185,90.3465288 127.003185,89.1712814 L127.003185,89.1712814 Z M175.024389,57.5753653 C177.574502,57.6657689 180.191683,58.1177804 182.876013,58.9314132 C185.560342,59.745046 187.953832,61.010678 190.056557,62.7283473 C187.864355,65.2596494 185.694555,67.7231118 183.547091,70.1188084 C182.428621,68.9887628 181.086477,68.1073405 179.520618,67.474515 C177.954759,66.8416895 176.456031,66.5026809 175.024389,66.457479 L175.024389,77.3058623 C176.769203,77.8482841 178.53636,78.4584996 180.325913,79.1365269 C182.115465,79.8145543 183.748408,80.7185772 185.224789,81.8486228 C186.70117,82.9786683 187.9091,84.3573032 188.848615,85.9845689 C189.78813,87.6118345 190.25788,89.645886 190.25788,92.0867844 C190.25788,94.5728847 189.821684,96.7312393 188.949277,98.5619132 C188.07687,100.392587 186.913678,101.918126 185.459666,103.138575 C184.005655,104.359024 182.350343,105.285648 180.493682,105.918473 C178.637021,106.551299 176.724466,106.890307 174.755958,106.935509 L174.755958,111.885084 L169.789974,111.885084 L169.789974,106.935509 C166.881951,106.845105 163.951602,106.291391 160.99884,105.27435 C158.046078,104.257309 155.451266,102.731771 153.214325,100.697689 C154.377534,99.4772394 155.55191,98.2455082 156.737489,97.0024581 C157.923068,95.759408 159.097444,94.5050762 160.260653,93.2394251 C160.842258,93.9174525 161.535699,94.5389682 162.340998,95.103991 C163.146297,95.6690138 163.973952,96.1549261 164.82399,96.5617425 C165.674027,96.9685589 166.524052,97.2962672 167.37409,97.5448772 C168.224127,97.7934873 169.029414,97.9177904 169.789974,97.9177904 L169.789974,86.0523713 C167.866205,85.5099494 166.020756,84.8997339 164.253573,84.2217066 C162.48639,83.5436792 160.931739,82.6622569 159.589574,81.5774132 C158.24741,80.4925694 157.173694,79.1704359 156.368396,77.6109731 C155.563097,76.0515102 155.160454,74.1417618 155.160454,71.8816707 C155.160454,69.6667813 155.607835,67.6892313 156.502612,65.9489611 C157.397388,64.2086909 158.56058,62.7396537 159.992222,61.5418054 C161.423864,60.3439571 163.034437,59.4173336 164.82399,58.7619072 C166.613543,58.1064808 168.380699,57.7335713 170.125513,57.6431677 L170.125513,52.9648024 L175.024389,52.9648024 L175.024389,57.5753653 Z M170.125513,66.3218743 C168.917565,66.4574797 167.832665,66.9207915 166.870781,67.7118234 C165.908896,68.5028553 165.427961,69.6441842 165.427961,71.1358443 C165.427961,72.5823026 165.852973,73.6897307 166.703011,74.4581617 C167.553048,75.2265927 168.693871,75.791607 170.125513,76.1532216 L170.125513,66.3218743 Z M174.755958,97.9855928 C176.277078,97.8951892 177.473823,97.3866763 178.34623,96.4600389 C179.218637,95.5334016 179.654834,94.2790698 179.654834,92.697006 C179.654834,91.1149422 179.196268,89.9284121 178.279122,89.1373802 C177.361976,88.3463483 176.1876,87.7248326 174.755958,87.2728144 L174.755958,97.9855928 Z M231.783642,89.2390838 C231.783642,91.5895786 231.425737,93.8496359 230.709916,96.0193234 C229.994095,98.1890108 228.953933,100.098759 227.589399,101.748626 C226.224865,103.398492 224.558369,104.720626 222.589861,105.715066 C220.621353,106.709506 218.384446,107.206719 215.879072,107.206719 C213.821086,107.206719 211.874977,106.788608 210.040686,105.952374 C208.206394,105.116141 206.774773,103.974812 205.745781,102.528353 L205.611565,102.528353 L205.611565,122.53006 L194.605871,122.53006 L194.605871,72.4918922 L205.074702,72.4918922 L205.074702,76.6278383 L205.276025,76.6278383 C206.305018,75.2717836 207.725454,74.0852536 209.537376,73.0682126 C211.349298,72.0511716 213.485545,71.5426587 215.94618,71.5426587 C218.362076,71.5426587 220.554245,72.0172707 222.522753,72.966509 C224.491261,73.9157473 226.157757,75.2039799 227.522291,76.8312455 C228.886825,78.4585111 229.938171,80.3456589 230.676362,82.4927455 C231.414552,84.6398321 231.783642,86.888589 231.783642,89.2390838 L231.783642,89.2390838 Z M221.113487,89.2390838 C221.113487,88.1542401 220.945719,87.0920132 220.610178,86.0523713 C220.274637,85.0127293 219.782518,84.0974062 219.133805,83.3063743 C218.485092,82.5153424 217.668621,81.871226 216.684367,81.374006 C215.700113,80.8767859 214.55929,80.6281796 213.261864,80.6281796 C212.009177,80.6281796 210.890724,80.8767859 209.90647,81.374006 C208.922216,81.871226 208.083376,82.5266426 207.389924,83.3402754 C206.696472,84.1539083 206.159614,85.0805317 205.779334,86.1201737 C205.399055,87.1598156 205.208917,88.2220425 205.208917,89.3068862 C205.208917,90.39173 205.399055,91.4539569 205.779334,92.4935988 C206.159614,93.5332407 206.696472,94.4598642 207.389924,95.273497 C208.083376,96.0871298 208.922216,96.7425464 209.90647,97.2397665 C210.890724,97.7369865 212.009177,97.9855928 213.261864,97.9855928 C214.55929,97.9855928 215.700113,97.7369865 216.684367,97.2397665 C217.668621,96.7425464 218.485092,96.0871298 219.133805,95.273497 C219.782518,94.4598642 220.274637,93.5219404 220.610178,92.4596976 C220.945719,91.3974548 221.113487,90.3239276 221.113487,89.2390838 L221.113487,89.2390838 Z M257.807481,85.5099521 C257.807481,83.747081 257.259439,82.2328427 256.163338,80.9671916 C255.067237,79.7015406 253.42311,79.0687246 251.230908,79.0687246 C250.157176,79.0687246 249.172937,79.2382288 248.27816,79.5772425 C247.383384,79.9162562 246.600467,80.3795679 245.929384,80.9671916 C245.258302,81.5548153 244.721444,82.2441328 244.318795,83.0351647 C243.916146,83.8261966 243.692455,84.6511175 243.647716,85.5099521 L257.807481,85.5099521 Z M267.940772,89.781503 L267.940772,91.1375509 C267.940772,91.5895691 267.918403,92.01898 267.873664,92.4257964 L243.647716,92.4257964 C243.737194,93.3750347 244.016807,94.2338564 244.486565,95.0022874 C244.956322,95.7707184 245.560287,96.4374353 246.298478,97.0024581 C247.036668,97.5674809 247.864324,98.008192 248.78147,98.3246048 C249.698615,98.6410176 250.649301,98.7992216 251.633555,98.7992216 C253.378369,98.7992216 254.854728,98.4715133 256.062676,97.8160868 C257.270624,97.1606604 258.254863,96.3131389 259.015423,95.273497 L266.665722,100.155269 C265.099864,102.460562 263.030725,104.234707 260.458243,105.477757 C257.885761,106.720808 254.899489,107.342323 251.499339,107.342323 C248.993965,107.342323 246.622844,106.946813 244.385903,106.155781 C242.148962,105.36475 240.191668,104.21212 238.513962,102.697859 C236.836257,101.183598 235.516481,99.319051 234.554597,97.1041617 C233.592712,94.8892724 233.111777,92.3580083 233.111777,89.5102934 C233.111777,86.7529822 233.581528,84.255619 234.521043,82.0181287 C235.460558,79.7806385 236.735595,77.8821904 238.346193,76.3227275 C239.95679,74.7632647 241.858161,73.554134 244.050363,72.6952994 C246.242565,71.8364648 248.613687,71.4070539 251.1638,71.4070539 C253.624435,71.4070539 255.883711,71.8251645 257.941697,72.6613982 C259.999682,73.4976319 261.766839,74.7067625 263.24322,76.2888263 C264.719601,77.8708901 265.871608,79.7919388 266.699276,82.0520299 C267.526945,84.3121211 267.940772,86.8885863 267.940772,89.781503 L267.940772,89.781503 Z M292.823777,106.257485 L292.823777,87.8152335 C292.823777,86.8659953 292.745485,85.9619724 292.588899,85.1031377 C292.432314,84.2443031 292.175069,83.4871839 291.817159,82.8317575 C291.459248,82.1763311 290.955944,81.6565179 290.307231,81.2723024 C289.658518,80.8880869 288.842047,80.695982 287.857793,80.695982 C286.873539,80.695982 286.01233,80.8880869 285.274139,81.2723024 C284.535949,81.6565179 283.920799,82.1876313 283.428672,82.8656587 C282.936545,83.543686 282.567456,84.3234058 282.321392,85.2048413 C282.075329,86.0862769 281.952299,87.0016 281.952299,87.9508383 L281.952299,106.257485 L270.879497,106.257485 L270.879497,72.4918922 L281.549652,72.4918922 L281.549652,77.1702575 L281.683867,77.1702575 C282.086517,76.4470283 282.61219,75.7351103 283.260903,75.034482 C283.909616,74.3338538 284.670164,73.7349386 285.542571,73.2377186 C286.414978,72.7404985 287.365664,72.3336882 288.394656,72.0172754 C289.423649,71.7008627 290.519734,71.5426587 291.682943,71.5426587 C293.919884,71.5426587 295.821255,71.949469 297.387114,72.7631018 C298.952972,73.5767346 300.216825,74.6276612 301.178709,75.9159132 C302.140594,77.2041651 302.834035,78.6845026 303.259054,80.3569701 C303.684073,82.0294375 303.896579,83.7018799 303.896579,85.3743473 L303.896579,106.257485 L292.823777,106.257485 Z M333.611352,106.257485 L333.611352,101.850329 L333.477136,101.850329 C332.403404,103.567999 330.871123,104.890132 328.880246,105.816769 C326.889368,106.743407 324.775491,107.206719 322.53855,107.206719 C320.033176,107.206719 317.796269,106.709506 315.827761,105.715066 C313.859253,104.720626 312.192757,103.398492 310.828223,101.748626 C309.463689,100.098759 308.423527,98.1890108 307.707706,96.0193234 C306.991885,93.8496359 306.63398,91.5895786 306.63398,89.2390838 C306.63398,86.888589 307.00307,84.6398321 307.74126,82.4927455 C308.479451,80.3456589 309.530797,78.4585111 310.895331,76.8312455 C312.259865,75.2039799 313.915176,73.9157473 315.861315,72.966509 C317.807453,72.0172707 319.988438,71.5426587 322.404334,71.5426587 C324.864969,71.5426587 326.945293,72.0172707 328.645368,72.966509 C330.345443,73.9157473 331.665218,74.9553736 332.604734,76.0854192 L332.738949,76.0854192 L332.738949,54.9988743 L343.744643,54.9988743 L343.744643,106.257485 L333.611352,106.257485 Z M333.208705,89.3068862 C333.208705,88.2220425 333.018567,87.1598156 332.638287,86.1201737 C332.258008,85.0805317 331.72115,84.1539083 331.027698,83.3402754 C330.334246,82.5266426 329.495406,81.871226 328.511152,81.374006 C327.526898,80.8767859 326.408445,80.6281796 325.155758,80.6281796 C323.858332,80.6281796 322.717509,80.8767859 321.733255,81.374006 C320.749001,81.871226 319.921346,82.5153424 319.250263,83.3063743 C318.579181,84.0974062 318.075877,85.0127293 317.740336,86.0523713 C317.404795,87.0920132 317.237027,88.1542401 317.237027,89.2390838 C317.237027,90.3239276 317.404795,91.3974548 317.740336,92.4596976 C318.075877,93.5219404 318.579181,94.4598642 319.250263,95.273497 C319.921346,96.0871298 320.749001,96.7425464 321.733255,97.2397665 C322.717509,97.7369865 323.858332,97.9855928 325.155758,97.9855928 C326.408445,97.9855928 327.526898,97.7369865 328.511152,97.2397665 C329.495406,96.7425464 330.334246,96.0871298 331.027698,95.273497 C331.72115,94.4598642 332.258008,93.5332407 332.638287,92.4935988 C333.018567,91.4539569 333.208705,90.39173 333.208705,89.3068862 L333.208705,89.3068862 Z M371.580395,85.5099521 C371.580395,83.747081 371.032353,82.2328427 369.936252,80.9671916 C368.840151,79.7015406 367.196024,79.0687246 365.003822,79.0687246 C363.93009,79.0687246 362.945851,79.2382288 362.051075,79.5772425 C361.156298,79.9162562 360.373381,80.3795679 359.702299,80.9671916 C359.031216,81.5548153 358.494359,82.2441328 358.091709,83.0351647 C357.68906,83.8261966 357.465369,84.6511175 357.42063,85.5099521 L371.580395,85.5099521 Z M381.713687,89.781503 L381.713687,91.1375509 C381.713687,91.5895691 381.691318,92.01898 381.646579,92.4257964 L357.42063,92.4257964 C357.510108,93.3750347 357.789721,94.2338564 358.259479,95.0022874 C358.729237,95.7707184 359.333202,96.4374353 360.071392,97.0024581 C360.809583,97.5674809 361.637238,98.008192 362.554384,98.3246048 C363.47153,98.6410176 364.422215,98.7992216 365.406469,98.7992216 C367.151283,98.7992216 368.627642,98.4715133 369.83559,97.8160868 C371.043538,97.1606604 372.027777,96.3131389 372.788337,95.273497 L380.438637,100.155269 C378.872778,102.460562 376.803639,104.234707 374.231157,105.477757 C371.658675,106.720808 368.672404,107.342323 365.272254,107.342323 C362.76688,107.342323 360.395758,106.946813 358.158817,106.155781 C355.921876,105.36475 353.964582,104.21212 352.286877,102.697859 C350.609171,101.183598 349.289396,99.319051 348.327511,97.1041617 C347.365627,94.8892724 346.884692,92.3580083 346.884692,89.5102934 C346.884692,86.7529822 347.354442,84.255619 348.293957,82.0181287 C349.233472,79.7806385 350.50851,77.8821904 352.119107,76.3227275 C353.729704,74.7632647 355.631076,73.554134 357.823278,72.6952994 C360.01548,71.8364648 362.386602,71.4070539 364.936714,71.4070539 C367.397349,71.4070539 369.656625,71.8251645 371.714611,72.6613982 C373.772597,73.4976319 375.539753,74.7067625 377.016134,76.2888263 C378.492515,77.8708901 379.644523,79.7919388 380.472191,82.0520299 C381.299859,84.3121211 381.713687,86.8885863 381.713687,89.781503 L381.713687,89.781503 Z M406.32826,81.5774132 C405.836133,81.4418077 405.355198,81.3514054 404.88544,81.3062036 C404.415683,81.2610018 403.957117,81.2384012 403.509729,81.2384012 C402.033348,81.2384012 400.791864,81.5096081 399.785241,82.0520299 C398.778617,82.5944518 397.973331,83.2498684 397.369357,84.0182994 C396.765382,84.7867304 396.329186,85.6229516 396.060753,86.526988 C395.79232,87.4310245 395.658105,88.2220445 395.658105,88.9000719 L395.658105,106.257485 L384.652411,106.257485 L384.652411,72.4918922 L395.255458,72.4918922 L395.255458,77.3736647 L395.389674,77.3736647 C396.239711,75.6559954 397.447641,74.2547599 399.0135,73.1699162 C400.579358,72.0850724 402.391253,71.5426587 404.449239,71.5426587 C404.896627,71.5426587 405.332824,71.5652593 405.757843,71.6104611 C406.182862,71.6556629 406.529582,71.7234646 406.798015,71.8138683 L406.32826,81.5774132 Z" id="Big-$pender" fill="#F8F8F8"></path>
            <path d="M490.78905,81.9700599 L490.78905,81.9700599 C490.78905,100.975666 506.034149,116.377246 524.8438,116.377246 C543.654731,116.377246 558.898551,100.974374 558.898551,81.9700599 C558.898551,62.9644536 543.653452,47.5628743 524.8438,47.5628743 C506.03287,47.5628743 490.78905,62.9657456 490.78905,81.9700599 L490.78905,81.9700599 Z M485.780998,81.9700599 C485.780998,60.1730013 503.265267,42.502994 524.8438,42.502994 C546.41759,42.502994 563.906602,60.1682087 563.906602,81.9700599 C563.906602,103.767118 546.422334,121.437126 524.8438,121.437126 C503.270011,121.437126 485.780998,103.771911 485.780998,81.9700599 L485.780998,81.9700599 Z" id="Rectangle-5" fill="#FFFFFF"></path>
            <path d="M527.625689,90.7860227 L527.625689,60.895052 L527.625689,58.6810747 L522.05982,58.6810747 L522.05982,60.895052 L522.05982,90.7860227 L522.05982,93 L527.625689,93 L527.625689,90.7860227 Z M527.565868,104.912285 L527.565868,99.4077149 L527.565868,99 L522,99 L522,99.4077149 L522,104.912285 L522,105.32 L527.565868,105.32 L527.565868,104.912285 Z" id="Combined-Shape" fill="#FFFFFF"></path>
        </g>
    </g>
</svg>