<?xml version="1.0" encoding="UTF-8" standalone="no"?>
<svg width="621px" height="167px" viewBox="0 0 621 167" version="1.1" xmlns="http://www.w3.org/2000/svg" xmlns:xlink="http://www.w3.org/1999/xlink">
    <!-- Generator: Sketch 3.8.2 (29753) - http://www.bohemiancoding.com/sketch -->
    <title>banner-over</title>
    <desc>Created with Sketch.</desc>
    <defs>
        <linearGradient x1="50%" y1="-69.4283308%" x2="50%" y2="149.532186%" id="linearGradient-1">
            <stop stop-color="#F5515F" offset="0%"></stop>
            <stop stop-color="#9F031B" offset="100%"></stop>
        </linearGradient>
        <rect id="path-2" x="0" y="0" width="621" height="167"></rect>
        <filter x="-50%" y="-50%" width="200%" height="200%" filterUnits="objectBoundingBox" id="filter-3">
            <feGaussianBlur stdDeviation="1" in="SourceAlpha" result="shadowBlurInner1"></feGaussianBlur>
            <feOffset dx="0" dy="4" in="shadowBlurInner1" result="shadowOffsetInner1"></feOffset>
            <feComposite in="shadowOffsetInner1" in2="SourceAlpha" operator="arithmetic" k2="-1" k3="1" result="shadowInnerInner1"></feComposite>
            <feColorMatrix values="0 0 0 0 0   0 0 0 0 0   0 0 0 0 0  0 0 0 0.312613225 0" type="matrix" in="shadowInnerInner1"></feColorMatrix>
        </filter>
        <path d="M82.875,91.198 C82.875,93.7886796 82.3613385,95.9661578 81.334,97.7305 C80.3066615,99.4948422 78.9443418,100.912995 77.247,101.985 C75.5496582,103.057005 73.6178442,103.827498 71.4515,104.2965 C69.2851558,104.765502 67.0630114,105 64.785,105 L45.891,105 L45.891,57.564 L64.785,57.564 C66.6163425,57.564 68.4923237,57.7538314 70.413,58.1335 C72.3336763,58.5131686 74.0756589,59.1608288 75.639,60.0765 C77.2023412,60.9921712 78.4753284,62.2316588 79.458,63.795 C80.4406716,65.3583412 80.932,67.3459879 80.932,69.758 C80.932,72.3933465 80.2173405,74.5708247 78.788,76.2905 C77.3586595,78.0101753 75.4826783,79.2496629 73.16,80.009 L73.16,80.143 C74.5000067,80.3663344 75.7618274,80.779497 76.9455,81.3825 C78.1291726,81.985503 79.1564956,82.7559953 80.0275,83.694 C80.8985044,84.6320047 81.5908308,85.7263271 82.1045,86.977 C82.6181692,88.2276729 82.875,89.6346588 82.875,91.198 L82.875,91.198 Z M69.877,71.299 C69.877,69.690992 69.2628395,68.5185037 68.0345,67.7815 C66.8061605,67.0444963 64.9860121,66.676 62.574,66.676 L56.946,66.676 L56.946,76.458 L63.11,76.458 C65.2540107,76.458 66.9178274,76.0225044 68.1015,75.1515 C69.2851726,74.2804956 69.877,72.9963418 69.877,71.299 L69.877,71.299 Z M71.418,90.126 C71.418,88.1606568 70.6810074,86.7983371 69.207,86.039 C67.7329926,85.2796629 65.767679,84.9 63.311,84.9 L56.946,84.9 L56.946,95.754 L63.378,95.754 C64.2713378,95.754 65.1981619,95.6758341 66.1585,95.5195 C67.1188381,95.3631659 67.9898294,95.084002 68.7715,94.682 C69.5531706,94.279998 70.1896642,93.7105037 70.681,92.9735 C71.1723358,92.2364963 71.418,91.2873391 71.418,90.126 L71.418,90.126 Z M97.8689999,60.981 C97.8689999,61.8296709 97.7015016,62.6224963 97.3664999,63.3595 C97.0314982,64.0965037 96.584836,64.7329973 96.0264999,65.269 C95.4681638,65.8050027 94.7981705,66.2293318 94.0164999,66.542 C93.2348293,66.8546682 92.4196708,67.011 91.5709999,67.011 C89.7843243,67.011 88.2880059,66.4191726 87.0819999,65.2355 C85.8759939,64.0518274 85.2729999,62.6336749 85.2729999,60.981 C85.2729999,60.176996 85.4293317,59.4065037 85.7419999,58.6695 C86.0546681,57.9324963 86.5013303,57.2960027 87.0819999,56.76 C87.6626695,56.2239973 88.3326628,55.7885017 89.0919999,55.4535 C89.851337,55.1184983 90.6776621,54.951 91.5709999,54.951 C92.4196708,54.951 93.2348293,55.1073318 94.0164999,55.42 C94.7981705,55.7326682 95.4681638,56.1569973 96.0264999,56.693 C96.584836,57.2290027 97.0314982,57.8654963 97.3664999,58.6025 C97.7015016,59.3395037 97.8689999,60.1323291 97.8689999,60.981 L97.8689999,60.981 Z M86.0769999,105 L86.0769999,71.634 L97.0649999,71.634 L97.0649999,105 L86.0769999,105 Z M137.251,101.851 C137.251,105.111683 136.782004,107.947988 135.844,110.36 C134.905995,112.772012 133.588342,114.770825 131.891,116.3565 C130.193658,117.942175 128.127845,119.125829 125.6935,119.9075 C123.259154,120.689171 120.568015,121.08 117.62,121.08 C114.671985,121.08 111.645849,120.633338 108.5415,119.74 C105.437151,118.846662 102.746011,117.551342 100.468,115.854 L105.962,108.015 C107.570008,109.44434 109.34549,110.505163 111.2885,111.1975 C113.23151,111.889837 115.14099,112.236 117.017,112.236 C120.233016,112.236 122.611492,111.387342 124.1525,109.69 C125.693508,107.992658 126.464,105.737014 126.464,102.923 L126.464,100.913 L126.263,100.913 C125.235661,102.253007 123.851009,103.324996 122.109,104.129 C120.366991,104.933004 118.379344,105.335 116.146,105.335 C113.599987,105.335 111.344343,104.877171 109.379,103.9615 C107.413657,103.045829 105.74984,101.806341 104.3875,100.243 C103.02516,98.6796588 101.98667,96.8595104 101.272,94.7825 C100.55733,92.7054896 100.2,90.5056783 100.2,88.183 C100.2,85.8603217 100.55733,83.6493438 101.272,81.55 C101.98667,79.4506562 103.02516,77.597008 104.3875,75.989 C105.74984,74.380992 107.413657,73.0968381 109.379,72.1365 C111.344343,71.1761619 113.577654,70.696 116.079,70.696 C118.178344,70.696 120.188324,71.1203291 122.109,71.969 C124.029676,72.8176709 125.570661,74.1353244 126.732,75.922 L126.866,75.922 L126.866,71.634 L137.251,71.634 L137.251,101.851 Z M126.799,88.116 C126.799,86.9993278 126.609168,85.9273385 126.2295,84.9 C125.849831,83.8726615 125.30267,82.9681706 124.588,82.1865 C123.87333,81.4048294 123.024671,80.7906689 122.042,80.344 C121.059328,79.8973311 119.942673,79.674 118.692,79.674 C117.441327,79.674 116.335838,79.8973311 115.3755,80.344 C114.415162,80.7906689 113.600003,81.3936629 112.93,82.153 C112.259996,82.9123371 111.746335,83.8056615 111.389,84.833 C111.031665,85.8603385 110.853,86.9546609 110.853,88.116 C110.853,89.2326722 111.031665,90.3046615 111.389,91.332 C111.746335,92.3593385 112.259996,93.2638294 112.93,94.0455 C113.600003,94.8271706 114.415162,95.4524977 115.3755,95.9215 C116.335838,96.3905023 117.441327,96.625 118.692,96.625 C119.942673,96.625 121.070495,96.3905023 122.0755,95.9215 C123.080505,95.4524977 123.929163,94.8383371 124.6215,94.079 C125.313837,93.3196629 125.849831,92.4263385 126.2295,91.399 C126.609168,90.3716615 126.799,89.2773391 126.799,88.116 L126.799,88.116 Z M174.743,56.894 C177.289012,56.9833338 179.901986,57.429996 182.582,58.234 C185.262013,59.038004 187.651656,60.2886582 189.751,61.986 C187.562322,64.4873458 185.39601,66.9216548 183.252,69.289 C182.135327,68.1723277 180.795341,67.3013365 179.232,66.676 C177.668658,66.0506635 176.17234,65.7156669 174.743,65.671 L174.743,76.391 C176.485008,76.9270027 178.249324,77.5299966 180.036,78.2 C181.822675,78.8700033 183.452992,79.7633278 184.927,80.88 C186.401007,81.9966723 187.606995,83.358992 188.545,84.967 C189.483004,86.575008 189.952,88.5849879 189.952,90.997 C189.952,93.453679 189.516504,95.586491 188.6455,97.3955 C187.774495,99.204509 186.613174,100.711994 185.1615,101.918 C183.709826,103.124006 182.057176,104.039664 180.2035,104.665 C178.349824,105.290336 176.440343,105.625333 174.475,105.67 L174.475,110.561 L169.517,110.561 L169.517,105.67 C166.613652,105.580666 163.688014,105.033505 160.74,104.0285 C157.791985,103.023495 155.201344,101.51601 152.968,99.506 C154.129339,98.299994 155.301827,97.0828395 156.4855,95.8545 C157.669172,94.6261605 158.84166,93.3866729 160.003,92.136 C160.583669,92.8060033 161.275996,93.4201639 162.08,93.9785 C162.884004,94.5368361 163.710329,95.016998 164.559,95.419 C165.407671,95.821002 166.256329,96.1448321 167.105,96.3905 C167.953671,96.6361679 168.757662,96.759 169.517,96.759 L169.517,85.034 C167.596323,84.4979973 165.753842,83.8950033 163.9895,83.225 C162.225157,82.5549966 160.673006,81.6840054 159.333,80.612 C157.992993,79.5399946 156.921004,78.2335077 156.117,76.6925 C155.312996,75.1514923 154.911,73.2643445 154.911,71.031 C154.911,68.8423224 155.357662,66.8881753 156.251,65.1685 C157.144337,63.4488247 158.305659,61.9971726 159.735,60.8135 C161.16434,59.6298274 162.772324,58.7141699 164.559,58.0665 C166.345675,57.4188301 168.109991,57.0503338 169.852,56.961 L169.852,52.338 L174.743,52.338 L174.743,56.894 Z M169.852,65.537 C168.645994,65.6710007 167.562838,66.1288294 166.6025,66.9105 C165.642161,67.6921706 165.162,68.8199926 165.162,70.294 C165.162,71.7233405 165.586329,72.8176629 166.435,73.577 C167.283671,74.3363371 168.422659,74.8946649 169.852,75.252 L169.852,65.537 Z M174.475,96.826 C175.993674,96.7366662 177.188495,96.2341712 178.0595,95.3185 C178.930504,94.4028288 179.366,93.1633412 179.366,91.6 C179.366,90.0366588 178.908171,88.8641706 177.9925,88.0825 C177.076828,87.3008294 175.90434,86.6866689 174.475,86.24 L174.475,96.826 Z M231.411,88.183 C231.411,90.5056783 231.05367,92.7389893 230.339,94.883 C229.624329,97.0270107 228.58584,98.9141585 227.2235,100.5445 C225.861159,102.174841 224.197343,103.481328 222.232,104.464 C220.266656,105.446672 218.033345,105.938 215.532,105.938 C213.477323,105.938 211.534342,105.524837 209.703,104.6985 C207.871657,103.872163 206.442338,102.74434 205.415,101.315 L205.281,101.315 L205.281,121.08 L194.293,121.08 L194.293,71.634 L204.745,71.634 L204.745,75.721 L204.946,75.721 C205.973338,74.3809933 207.39149,73.208505 209.2005,72.2035 C211.009509,71.198495 213.142321,70.696 215.599,70.696 C218.011012,70.696 220.199656,71.1649953 222.165,72.103 C224.130343,73.0410047 225.794159,74.313992 227.1565,75.922 C228.51884,77.530008 229.568496,79.3948227 230.3055,81.5165 C231.042503,83.6381773 231.411,85.8603217 231.411,88.183 L231.411,88.183 Z M220.758,88.183 C220.758,87.1109946 220.590501,86.0613385 220.2555,85.034 C219.920498,84.0066615 219.429169,83.1021706 218.7815,82.3205 C218.13383,81.5388294 217.318671,80.9023358 216.336,80.411 C215.353328,79.9196642 214.214339,79.674 212.919,79.674 C211.668327,79.674 210.551671,79.9196642 209.569,80.411 C208.586328,80.9023358 207.748836,81.549996 207.0565,82.354 C206.364163,83.158004 205.828168,84.0736615 205.4485,85.101 C205.068831,86.1283385 204.879,87.1779946 204.879,88.25 C204.879,89.3220054 205.068831,90.3716615 205.4485,91.399 C205.828168,92.4263385 206.364163,93.341996 207.0565,94.146 C207.748836,94.950004 208.586328,95.5976642 209.569,96.089 C210.551671,96.5803358 211.668327,96.826 212.919,96.826 C214.214339,96.826 215.353328,96.5803358 216.336,96.089 C217.318671,95.5976642 218.13383,94.950004 218.7815,94.146 C219.429169,93.341996 219.920498,92.4151719 220.2555,91.3655 C220.590501,90.3158281 220.758,89.2550054 220.758,88.183 L220.758,88.183 Z M257.392999,84.498 C257.392999,82.7559913 256.845838,81.2596729 255.751499,80.009 C254.657161,78.7583271 253.015677,78.133 250.826999,78.133 C249.754994,78.133 248.772337,78.3004983 247.878999,78.6355 C246.985662,78.9705017 246.204003,79.4283304 245.533999,80.009 C244.863996,80.5896696 244.328001,81.2708294 243.925999,82.0525 C243.523997,82.8341706 243.300666,83.6493291 243.255999,84.498 L257.392999,84.498 Z M267.509999,88.719 L267.509999,90.059 C267.509999,90.5056689 267.487666,90.929998 267.442999,91.332 L243.255999,91.332 C243.345333,92.2700047 243.624497,93.1186629 244.093499,93.878 C244.562502,94.6373371 245.165496,95.2961639 245.902499,95.8545 C246.639503,96.4128361 247.465828,96.8483318 248.381499,97.161 C249.297171,97.4736682 250.246328,97.63 251.228999,97.63 C252.971008,97.63 254.444993,97.3061699 255.650999,96.6585 C256.857005,96.0108301 257.839662,95.1733385 258.598999,94.146 L266.236999,98.97 C264.673658,101.248011 262.607846,103.001161 260.039499,104.2295 C257.471153,105.457839 254.489683,106.072 251.094999,106.072 C248.593654,106.072 246.226344,105.681171 243.992999,104.8995 C241.759655,104.117829 239.805508,102.978841 238.130499,101.4825 C236.455491,99.9861592 235.137838,98.1436776 234.177499,95.955 C233.217161,93.7663224 232.736999,91.2650141 232.736999,88.451 C232.736999,85.7263197 233.205995,83.2585111 234.143999,81.0475 C235.082004,78.8364889 236.354991,76.9605077 237.962999,75.4195 C239.571007,73.8784923 241.469322,72.6836709 243.657999,71.835 C245.846677,70.9863291 248.213987,70.562 250.759999,70.562 C253.216678,70.562 255.472322,70.9751625 257.526999,71.8015 C259.581676,72.6278375 261.345992,73.8226588 262.819999,75.386 C264.294007,76.9493411 265.444162,78.8476555 266.270499,81.081 C267.096837,83.3143445 267.509999,85.860319 267.509999,88.719 L267.509999,88.719 Z M292.352999,105 L292.352999,86.776 C292.352999,85.8379953 292.274833,84.9446709 292.118499,84.096 C291.962165,83.2473291 291.705334,82.4991699 291.347999,81.8515 C290.990664,81.2038301 290.488169,80.6901686 289.840499,80.3105 C289.192829,79.9308314 288.377671,79.741 287.394999,79.741 C286.412328,79.741 285.552503,79.9308314 284.815499,80.3105 C284.078496,80.6901686 283.464335,81.2149967 282.972999,81.885 C282.481664,82.5550033 282.113167,83.3254956 281.867499,84.1965 C281.621831,85.0675044 281.498999,85.9719953 281.498999,86.91 L281.498999,105 L270.443999,105 L270.443999,71.634 L281.096999,71.634 L281.096999,76.257 L281.230999,76.257 C281.633001,75.5423298 282.157829,74.8388368 282.805499,74.1465 C283.453169,73.4541632 284.212495,72.8623358 285.083499,72.371 C285.954504,71.8796642 286.903661,71.4776682 287.930999,71.165 C288.958338,70.8523318 290.05266,70.696 291.213999,70.696 C293.447344,70.696 295.345658,71.097996 296.908999,71.902 C298.47234,72.706004 299.734161,73.7444936 300.694499,75.0175 C301.654837,76.2905064 302.347164,77.7533251 302.771499,79.406 C303.195835,81.0586749 303.407999,82.7113251 303.407999,84.364 L303.407999,105 L292.352999,105 Z M333.074999,105 L333.074999,100.645 L332.940999,100.645 C331.868994,102.342342 330.339176,103.648829 328.351499,104.5645 C326.363823,105.480171 324.253344,105.938 322.019999,105.938 C319.518653,105.938 317.285342,105.446672 315.319999,104.464 C313.354656,103.481328 311.690839,102.174841 310.328499,100.5445 C308.966159,98.9141585 307.927669,97.0270107 307.212999,94.883 C306.498329,92.7389893 306.140999,90.5056783 306.140999,88.183 C306.140999,85.8603217 306.509496,83.6381773 307.246499,81.5165 C307.983503,79.3948227 309.033159,77.530008 310.395499,75.922 C311.757839,74.313992 313.41049,73.0410047 315.353499,72.103 C317.296509,71.1649953 319.473987,70.696 321.885999,70.696 C324.342678,70.696 326.419657,71.1649953 328.116999,72.103 C329.814341,73.0410047 331.131995,74.0683277 332.069999,75.185 L332.203999,75.185 L332.203999,54.348 L343.191999,54.348 L343.191999,105 L333.074999,105 Z M332.672999,88.25 C332.672999,87.1779946 332.483168,86.1283385 332.103499,85.101 C331.723831,84.0736615 331.187836,83.158004 330.495499,82.354 C329.803162,81.549996 328.965671,80.9023358 327.982999,80.411 C327.000328,79.9196642 325.883672,79.674 324.632999,79.674 C323.337659,79.674 322.198671,79.9196642 321.215999,80.411 C320.233328,80.9023358 319.407003,81.5388294 318.736999,82.3205 C318.066996,83.1021706 317.564501,84.0066615 317.229499,85.034 C316.894498,86.0613385 316.726999,87.1109946 316.726999,88.183 C316.726999,89.2550054 316.894498,90.3158281 317.229499,91.3655 C317.564501,92.4151719 318.066996,93.341996 318.736999,94.146 C319.407003,94.950004 320.233328,95.5976642 321.215999,96.089 C322.198671,96.5803358 323.337659,96.826 324.632999,96.826 C325.883672,96.826 327.000328,96.5803358 327.982999,96.089 C328.965671,95.5976642 329.803162,94.950004 330.495499,94.146 C331.187836,93.341996 331.723831,92.4263385 332.103499,91.399 C332.483168,90.3716615 332.672999,89.3220054 332.672999,88.25 L332.672999,88.25 Z M370.982999,84.498 C370.982999,82.7559913 370.435838,81.2596729 369.341499,80.009 C368.24716,78.7583271 366.605677,78.133 364.416999,78.133 C363.344994,78.133 362.362337,78.3004983 361.468999,78.6355 C360.575661,78.9705017 359.794002,79.4283304 359.123999,80.009 C358.453996,80.5896696 357.918001,81.2708294 357.515999,82.0525 C357.113997,82.8341706 356.890666,83.6493291 356.845999,84.498 L370.982999,84.498 Z M381.099999,88.719 L381.099999,90.059 C381.099999,90.5056689 381.077666,90.929998 381.032999,91.332 L356.845999,91.332 C356.935333,92.2700047 357.214497,93.1186629 357.683499,93.878 C358.152501,94.6373371 358.755495,95.2961639 359.492499,95.8545 C360.229503,96.4128361 361.055828,96.8483318 361.971499,97.161 C362.88717,97.4736682 363.836328,97.63 364.818999,97.63 C366.561008,97.63 368.034993,97.3061699 369.240999,96.6585 C370.447005,96.0108301 371.429662,95.1733385 372.188999,94.146 L379.826999,98.97 C378.263658,101.248011 376.197845,103.001161 373.629499,104.2295 C371.061153,105.457839 368.079683,106.072 364.684999,106.072 C362.183653,106.072 359.816344,105.681171 357.582999,104.8995 C355.349655,104.117829 353.395508,102.978841 351.720499,101.4825 C350.045491,99.9861592 348.727837,98.1436776 347.767499,95.955 C346.807161,93.7663224 346.326999,91.2650141 346.326999,88.451 C346.326999,85.7263197 346.795994,83.2585111 347.733999,81.0475 C348.672004,78.8364889 349.944991,76.9605077 351.552999,75.4195 C353.161007,73.8784923 355.059322,72.6836709 357.247999,71.835 C359.436677,70.9863291 361.803986,70.562 364.349999,70.562 C366.806678,70.562 369.062322,70.9751625 371.116999,71.8015 C373.171676,72.6278375 374.935992,73.8226588 376.409999,75.386 C377.884007,76.9493411 379.034162,78.8476555 379.860499,81.081 C380.686837,83.3143445 381.099999,85.860319 381.099999,88.719 L381.099999,88.719 Z M405.674999,80.612 C405.183663,80.4779993 404.703501,80.3886669 404.234499,80.344 C403.765497,80.2993331 403.307668,80.277 402.860999,80.277 C401.386992,80.277 400.147504,80.5449973 399.142499,81.081 C398.137494,81.6170027 397.333502,82.2646629 396.730499,83.024 C396.127496,83.7833371 395.692,84.6096622 395.423999,85.503 C395.155998,86.3963378 395.021999,87.1779967 395.021999,87.848 L395.021999,105 L384.033999,105 L384.033999,71.634 L394.619999,71.634 L394.619999,76.458 L394.753999,76.458 C395.60267,74.7606582 396.808658,73.3760054 398.371999,72.304 C399.93534,71.2319946 401.744322,70.696 403.798999,70.696 C404.245668,70.696 404.681164,70.7183331 405.105499,70.763 C405.529835,70.8076669 405.875998,70.8746662 406.143999,70.964 L405.674999,80.612 Z" id="path-4"></path>
        <filter x="-50%" y="-50%" width="200%" height="200%" filterUnits="objectBoundingBox" id="filter-5">
            <feOffset dx="0" dy="2" in="SourceAlpha" result="shadowOffsetOuter1"></feOffset>
            <feGaussianBlur stdDeviation="1.5" in="shadowOffsetOuter1" result="shadowBlurOuter1"></feGaussianBlur>
            <feColorMatrix values="0 0 0 0 0   0 0 0 0 0   0 0 0 0 0  0 0 0 0.359091938 0" type="matrix" in="shadowBlurOuter1"></feColorMatrix>
        </filter>
    </defs>
    <g id="Page-1" stroke="none" stroke-width="1" fill="none" fill-rule="evenodd">
        <g id="banner-over">
            <g id="Rectangle-4">
                <use fill="url(#linearGradient-1)" fill-rule="evenodd" xlink:href="#path-2"></use>
                <use fill="black" fill-opacity="1" filter="url(#filter-3)" xlink:href="#path-2"></use>
            </g>
            <g id="Big-$pender">
                <use fill="black" fill-opacity="1" filter="url(#filter-5)" xlink:href="#path-4"></use>
                <use fill="#F8F8F8" fill-rule="evenodd" xlink:href="#path-4"></use>
                <use fill="black" fill-opacity="1" xlink:href="#path-4"></use>
            </g>
            <path d="M490,81 L490,81 C490,99.7806878 505.220589,115 524,115 C542.780688,115 558,99.7794111 558,81 C558,62.2193122 542.779411,47 524,47 C505.219312,47 490,62.2205889 490,81 L490,81 Z M485,81 C485,59.4608948 502.456159,42 524,42 C545.539105,42 563,59.4561589 563,81 C563,102.539105 545.543841,120 524,120 C502.460895,120 485,102.543841 485,81 L485,81 Z" id="Rectangle-5" fill="#FFFFFF"></path>
            <polygon id="Line" fill="#FFFFFF" points="504 84 544.503086 84 547.503086 84 547.503086 78 544.503086 78 504 78 501 78 501 84"></polygon>
        </g>
    </g>
</svg>